<?xml version="1.0" encoding="utf-8"?>
<!-- Generator: Adobe Illustrator 21.1.0, SVG Export Plug-In . SVG Version: 6.00 Build 0)  -->
<svg version="1.1" id="Layer_1" xmlns="http://www.w3.org/2000/svg" xmlns:xlink="http://www.w3.org/1999/xlink" x="0px" y="0px"
	 viewBox="0 0 500 500" style="enable-background:new 0 0 500 500;" xml:space="preserve">
<style type="text/css">
	.st0{fill:#89C213;}
	.st1{fill:none;stroke:#89C213;stroke-width:5;stroke-miterlimit:10;}
</style>
<g>
	<path class="st0" d="M362.7,133H137.3c-3.7,0-6.6,3-6.6,6.6v4.4c0,3.3,2.3,5.9,5.4,6.5c-0.4,1.3-0.6,2.8-0.6,4.2v123
		c0,8.1,6.5,14.6,14.6,14.6h87.1l-19.5,66.4c-1,3.4,0.9,7,4.3,8h0c3.4,1,7-0.9,8-4.3l20.3-69.2c0.1-0.3,0.1-0.6,0.2-0.9h0.7
		c0,0.3,0.1,0.6,0.2,0.9l20.3,69.2c1,3.4,4.6,5.3,8,4.3h0c3.4-1,5.3-4.6,4.3-8l-19.5-66.4h87.1c8.1,0,14.6-6.5,14.6-14.6v-123
		c0-1.6-0.3-3.2-0.8-4.7c2.3-1,4-3.4,4-6.1v-4.4C369.3,136,366.4,133,362.7,133z M356.5,275.5c0,3.6-2.9,6.5-6.5,6.5H151.6
		c-3.6,0-6.5-2.9-6.5-6.5V157.1c0-3.3,2.5-6,5.8-6.4h199.9c3.2,0.4,5.8,3.1,5.8,6.4V275.5z"/>
	<path class="st0" d="M328.4,173.5c-5.3,0-9.6,4.3-9.6,9.6c0,3,1.4,5.7,3.6,7.5l-52.7,43.7c-0.3,0.2-0.5,0.6-0.5,0.9
		c-1.7-1.5-3.9-2.4-6.4-2.4c-2.8,0-5.3,1.2-7.1,3.1l-21.6-19.2c-0.2-0.2-0.4-0.3-0.7-0.3c1.3-1.7,2.1-3.7,2.1-6
		c0-5.3-4.3-9.6-9.6-9.6c-5.3,0-9.6,4.3-9.6,9.6c0,2.2,0.8,4.3,2,5.9l-55.7,40.2c-0.7,0.5-0.9,1.5-0.4,2.2s1.5,0.9,2.2,0.4
		l55.8-40.3c0.1-0.1,0.2-0.2,0.3-0.3c1.5,1,3.3,1.6,5.3,1.6c2.1,0,4-0.7,5.5-1.8c0.1,0.3,0.2,0.7,0.5,0.9l21.6,19.2
		c0.1,0.1,0.3,0.2,0.4,0.2c-0.5,1.2-0.8,2.5-0.8,3.8c0,5.3,4.3,9.6,9.6,9.6c5.3,0,9.6-4.3,9.6-9.6c0-2-0.6-3.8-1.6-5.3
		c0.3,0,0.7-0.1,0.9-0.3l53-43.9c0.2-0.2,0.4-0.4,0.4-0.7c1,0.4,2.1,0.6,3.2,0.6c5.3,0,9.6-4.3,9.6-9.6
		C338,177.8,333.7,173.5,328.4,173.5z M217.9,210.3c0-4.4,3.6-8,8-8c4.4,0,8,3.6,8,8c0,4.4-3.6,8-8,8
		C221.5,218.3,217.9,214.7,217.9,210.3z M262.8,250.3c-4.4,0-8-3.6-8-8c0-4.4,3.6-8,8-8c4.4,0,8,3.6,8,8
		C270.8,246.7,267.2,250.3,262.8,250.3z M328.4,191.1c-4.4,0-8-3.6-8-8c0-4.4,3.6-8,8-8s8,3.6,8,8
		C336.4,187.5,332.9,191.1,328.4,191.1z"/>
</g>
<path class="st1" d="M358.1,404H141.9c-25.4,0-45.9-20.6-45.9-45.9V141.9c0-25.4,20.6-45.9,45.9-45.9h216.2
	c25.4,0,45.9,20.6,45.9,45.9v216.2C404,383.4,383.4,404,358.1,404z"/>
</svg>
