<svg id="Layer_1" data-name="Layer 1" xmlns="http://www.w3.org/2000/svg" viewBox="0 0 500 500"><defs><style>.cls-1{fill:#fff;}.cls-1,.cls-2,.cls-3{stroke:#89c213;stroke-miterlimit:10;}.cls-1,.cls-2{stroke-width:8px;}.cls-2,.cls-3{fill:none;}.cls-3{stroke-width:5px;}</style></defs><title>icon-logo</title><path class="cls-1" d="M138.45,191.23s-.74-40.46,45.61-45.61L339.26,300.83l-15.45,5.88-6.62,16.92L301,329.52l-7.36,18.39Z"/><path class="cls-1" d="M323.08,354.53s0-21.33,24.27-24.27l9.56,31.43Z"/><path class="cls-2" d="M246.05,322.16l-12.24-12.24L191.41,350l-34.78-34,13.45-14,13.2,13.25s11.3,1.17,9.25-9.25L180,293.37l9.53-10.31,15,12.64s9.73,0,8.36-8.36l-25.68-25.68L136.4,310.88s-4,4.82,2,10.89L185,368.3s6.25,8.19,14.44,0S246.05,322.16,246.05,322.16Z"/><path class="cls-2" d="M315.13,253.33l-12.24-12.24,40.05-42.4-34-34.78-14,13.45,13.25,13.2s1.17,11.3-9.25,9.25l-12.56-12.56L276,196.77l12.64,15s0,9.73-8.36,8.36l-25.68-25.68,49.21-50.77s4.82-4,10.89,2l46.53,46.53s8.19,6.25,0,14.44S315.13,253.33,315.13,253.33Z"/><rect class="cls-3" x="96" y="103.15" width="308" height="308" rx="45.92" ry="45.92"/></svg>