<?xml version="1.0" encoding="utf-8"?>
<!-- Generator: Adobe Illustrator 21.1.0, SVG Export Plug-In . SVG Version: 6.00 Build 0)  -->
<svg version="1.1" id="Layer_1" xmlns="http://www.w3.org/2000/svg" xmlns:xlink="http://www.w3.org/1999/xlink" x="0px" y="0px"
	 viewBox="0 0 500 500" style="enable-background:new 0 0 500 500;" xml:space="preserve">
<style type="text/css">
	.st0{fill:#89C213;}
	.st1{fill:none;stroke:#89C213;stroke-width:5;stroke-miterlimit:10;}
</style>
<path class="st0" d="M338.9,180H161.1c-12.4,0-22.4,10-22.4,22.4v95.3c0,12.4,10,22.4,22.4,22.4h177.8c12.4,0,22.4-10,22.4-22.4
	v-95.3C361.3,190,351.3,180,338.9,180z M303.9,194.6c12,0,21.6,9.7,21.6,21.6c0,12-9.7,21.6-21.6,21.6s-21.6-9.7-21.6-21.6
	C282.2,204.3,291.9,194.6,303.9,194.6z M239,284.2h-68v-8.8h68V284.2z M239,253.3h-68v-8.8h68V253.3z M239,222.8h-68V214h68V222.8z
	 M341.4,292.9c0,2.5-2,4.5-4.5,4.5h-65.1c-2.5,0-4.5-2-4.5-4.5v-15.4c0-18.7,15.2-33.9,33.9-33.9h6.4c18.7,0,33.9,15.2,33.9,33.9
	V292.9z"/>
<path class="st1" d="M358.1,404H141.9c-25.4,0-45.9-20.6-45.9-45.9V141.9c0-25.4,20.6-45.9,45.9-45.9h216.2
	c25.4,0,45.9,20.6,45.9,45.9v216.2C404,383.4,383.4,404,358.1,404z"/>
</svg>
