<?xml version="1.0" encoding="utf-8"?>
<!-- Generator: Adobe Illustrator 21.1.0, SVG Export Plug-In . SVG Version: 6.00 Build 0)  -->
<svg version="1.1" id="Layer_1" xmlns="http://www.w3.org/2000/svg" xmlns:xlink="http://www.w3.org/1999/xlink" x="0px" y="0px"
	 viewBox="0 0 500 500" style="enable-background:new 0 0 500 500;" xml:space="preserve">
<style type="text/css">
	.st0{fill:#FFFFFF;stroke:#000000;stroke-miterlimit:10;}
	.st1{fill:none;stroke:#89C213;stroke-width:4.7923;stroke-miterlimit:10;}
	.st2{fill:#89C213;}
	.st3{fill:none;stroke:#89C213;stroke-width:5;stroke-miterlimit:10;}
</style>
<path class="st0" d="M316.5,138.5"/>
<g>
	<path class="st1" d="M271.7,247c-0.8-8.8,14.1-36.8,27.4-51.9c8.3-9.5,15.2-20.8,12.9-35.2c-3.1-19.3-19.6-33.9-39.1-34
		c-21.8,0-39.6,17.7-39.6,39.5c0,5.1,0.7,9.9,2.4,14.4l0,0c0.3,0.5,0.5,0.8,1.3,2.3c0.5,1,1,1.9,1.5,2.9c5.3,10,14.6,33.9,9.2,58.3
		c-5.9,26.5-47.9,24.9-62.9,23.4c-3.1-0.3-5.9,1.8-6.6,4.8l-4.9,21.9c-0.6,2.7,1.2,5.4,4,5.9L320.5,324c2.7,0.5,5.3-1.6,5.4-4.4
		l0.8-21.1c0.1-2.1-1.3-3.9-3.3-4.4C276.4,283,272.9,259.9,271.7,247z"/>
	<ellipse class="st2" cx="250.8" cy="361.4" rx="71.3" ry="12.6"/>
</g>
<path class="st3" d="M358.1,404H141.9c-25.4,0-45.9-20.6-45.9-45.9V141.9c0-25.4,20.6-45.9,45.9-45.9h216.2
	c25.4,0,45.9,20.6,45.9,45.9v216.2C404,383.4,383.4,404,358.1,404z"/>
</svg>
