<svg id="Layer_1" data-name="Layer 1" xmlns="http://www.w3.org/2000/svg" viewBox="0 0 500 500"><defs><style>.cls-1{fill:#fff;}</style></defs><title>logo-instagram</title><path class="cls-1" d="M308.83,394.55H191.17a82.1,82.1,0,0,1-81.86-81.86V187.31a82.1,82.1,0,0,1,81.86-81.86H308.83a82.1,82.1,0,0,1,81.86,81.86V312.69A82.1,82.1,0,0,1,308.83,394.55Zm0-21.63a60.47,60.47,0,0,0,60.23-60.23V187.31a60.47,60.47,0,0,0-60.23-60.23H191.17a60.47,60.47,0,0,0-60.23,60.23V312.69a60.47,60.47,0,0,0,60.23,60.23Z"/><path class="cls-1" d="M327.92,248.88a77.48,77.48,0,1,1-77.48-77.48A77.48,77.48,0,0,1,327.92,248.88Zm-77.86-50.68a50.74,50.74,0,1,0,50.74,50.74A50.74,50.74,0,0,0,250.06,198.21Z"/><circle class="cls-1" cx="329.16" cy="170.19" r="18.35"/></svg>