<svg id="Layer_1" data-name="Layer 1" xmlns="http://www.w3.org/2000/svg" viewBox="0 0 500 500"><defs><style>.cls-1{fill:#fff;}</style></defs><title>logo-twitter</title><path class="cls-1" d="M405.43,153.59a127.49,127.49,0,0,1-36.63,10,64,64,0,0,0,28-35.29,127.68,127.68,0,0,1-40.5,15.48A63.84,63.84,0,0,0,247.66,202a181.06,181.06,0,0,1-131.46-66.64,63.85,63.85,0,0,0,19.74,85.15,63.53,63.53,0,0,1-28.89-8c0,.27,0,.53,0,.8a63.82,63.82,0,0,0,51.16,62.54,63.91,63.91,0,0,1-28.8,1.09A63.84,63.84,0,0,0,189,321.25a128,128,0,0,1-79.21,27.3,129.41,129.41,0,0,1-15.21-.89,180.52,180.52,0,0,0,97.77,28.66c117.31,0,181.46-97.18,181.46-181.46q0-4.15-.19-8.25A129.59,129.59,0,0,0,405.43,153.59Z"/></svg>