<?xml version="1.0" encoding="utf-8"?>
<!-- Generator: Adobe Illustrator 21.1.0, SVG Export Plug-In . SVG Version: 6.00 Build 0)  -->
<svg version="1.1" id="Layer_1" xmlns="http://www.w3.org/2000/svg" xmlns:xlink="http://www.w3.org/1999/xlink" x="0px" y="0px"
	 viewBox="0 0 500 500" style="enable-background:new 0 0 500 500;" xml:space="preserve">
<g>
	<g>
		<path d="M104.7,349.3l14.7-38h3.3L101.1,368l-13.5-30.5L76,368.1l-25.3-56.8h11.8l17.1,38.3l6.3-16.4L76,311.3h11.8L104.7,349.3z"
			/>
		<path d="M134.2,322.4c-1,1-2.2,1.5-3.6,1.5c-1.4,0-2.6-0.5-3.6-1.5s-1.5-2.2-1.5-3.6s0.5-2.6,1.5-3.6s2.2-1.5,3.6-1.5
			s2.6,0.5,3.6,1.5s1.5,2.2,1.5,3.6C135.7,320.2,135.2,321.4,134.2,322.4z M135.6,367.1h-10V328h10V367.1z"/>
		<path d="M144.4,328.7c1-1,2.4-1.4,3.9-1.4s3,0.3,4.2,0.9s2.4,1.6,3.5,3l15.3,18.9c0.3,0.3,0.5,0.6,0.8,0.9s0.7,0.4,1.1,0.4
			c0.4,0,0.8-0.1,1-0.3c0.3-0.2,0.4-0.6,0.4-1.2V328h2.4v36.7c0,0.7-0.2,1.4-0.6,1.8c-0.4,0.5-1.1,0.7-2.1,0.7c-0.9,0-1.5-0.2-2-0.5
			s-1-0.8-1.6-1.5l-21.6-26.5c-0.4-0.6-0.8-1-1.1-1.3s-0.7-0.4-1.2-0.4s-0.9,0.2-1.2,0.6s-0.4,0.9-0.4,1.6v28h-2.4V333
			C142.8,331,143.4,329.6,144.4,328.7z"/>
		<path d="M193.8,356.4c0.8,2.2,1.8,3.9,3.1,5.2c1.3,1.3,2.7,2.2,4.4,2.7s3.4,0.8,5.1,0.8c2.9,0,5.3-0.6,7.4-1.8
			c2.1-1.2,4-2.7,5.7-4.5l2,1.8c-0.8,0.8-1.7,1.7-2.7,2.6s-2.2,1.7-3.5,2.5s-2.8,1.4-4.4,1.9c-1.6,0.5-3.4,0.7-5.5,0.7
			c-3.3,0-6.4-0.5-9.2-1.5s-5.2-2.4-7.2-4.2c-2-1.8-3.6-3.9-4.7-6.3c-1.1-2.4-1.7-5.1-1.7-8s0.6-5.6,1.7-8.2
			c1.1-2.5,2.7-4.7,4.7-6.6s4.4-3.3,7.2-4.4s5.9-1.6,9.2-1.6c3.5,0,6.3,0.6,8.7,1.9c2.3,1.3,4.3,2.8,5.8,4.6l-1.9,1.8
			c-1.5-1.8-3.2-3.2-5-4.1s-4-1.4-6.5-1.4c-1.8,0-3.5,0.3-5.1,0.9c-1.7,0.6-3.1,1.6-4.4,3c-1.3,1.4-2.3,3.3-3.1,5.5
			c-0.8,2.3-1.2,5.1-1.2,8.4C192.6,351.5,193,354.2,193.8,356.4z"/>
		<path d="M253.1,343.2V328h10v39.1h-10v-21.5h-17.5v21.5h-10V328h10v15.2H253.1z"/>
		<path d="M284.3,330.4c-1.4,0-2.4,0.3-3,0.9s-0.9,1.5-0.9,2.6v11.5h12.8v2.4h-12.8v12.9c0,1.2,0.4,2.1,1.2,2.9s2,1.1,3.7,1.1h11.3
			v2.4h-20.2c-1.5,0-2.9-0.4-4.1-1.3s-1.8-2.4-1.8-4.7v-26.9c0-1.7,0.5-3.2,1.5-4.4c1-1.2,2.5-1.8,4.5-1.8h20.2v2.4H284.3z"/>
		<path d="M317.1,330.8c-2.9,0-4.9,0.4-6.2,1.2c-1.3,0.8-1.9,2.2-1.9,4.2c0,1.7,0.8,2.9,2.4,3.7c1.6,0.7,4.1,1.4,7.6,2.1
			c4.9,0.9,8.6,2.5,11.2,4.7s3.9,5.2,3.9,8.7c0,4.2-1.2,7.2-3.7,9s-6.2,2.7-11.2,2.7h-16v-2.8h14.2c1.1,0,2.2-0.1,3.3-0.2
			c1.1-0.2,2-0.5,2.8-0.9c0.8-0.5,1.5-1,2-1.8c0.5-0.7,0.8-1.7,0.8-2.9c0-2-0.7-3.6-2.2-4.7c-1.4-1.1-3.9-1.9-7.3-2.4
			c-2-0.3-3.9-0.7-5.7-1.2c-1.8-0.5-3.3-1.3-4.7-2.2c-1.4-1-2.4-2.2-3.2-3.6c-0.8-1.4-1.2-3.2-1.2-5.2c0-2.1,0.4-3.8,1.1-5.3
			c0.7-1.4,1.7-2.6,2.9-3.5c1.2-0.9,2.5-1.5,3.9-1.9s2.8-0.6,4.2-0.6h16.7v2.8L317.1,330.8L317.1,330.8z"/>
		<path d="M374.2,330.4h-12.8v36.7h-10v-36.7h-12.8V328h35.5L374.2,330.4L374.2,330.4z"/>
		<path d="M395.1,330.4c-1.4,0-2.4,0.3-3,0.9s-0.9,1.5-0.9,2.6v11.5H404v2.4h-12.8v12.9c0,1.2,0.4,2.1,1.2,2.9
			c0.8,0.7,2,1.1,3.7,1.1h11.3v2.4h-20.2c-1.5,0-2.9-0.4-4.1-1.3s-1.8-2.4-1.8-4.7v-26.9c0-1.7,0.5-3.2,1.5-4.4
			c1-1.2,2.5-1.8,4.5-1.8h20.2v2.4H395.1z"/>
		<path d="M414.1,367.1V328h18.1c2.4,0,4.6,0.2,6.7,0.5s3.9,0.9,5.5,1.8s2.8,2,3.7,3.5c0.9,1.5,1.4,3.3,1.4,5.5c0,1.6-0.3,3-1,4.1
			c-0.7,1.2-1.6,2.1-2.7,2.9c-1.1,0.7-2.3,1.3-3.6,1.8c-1.3,0.4-2.7,0.7-4,0.9l10.9,18.1h-11.6l-12-19.8h4.9c2.7,0,5-0.6,6.7-2
			c1.8-1.3,2.7-3.3,2.7-6c0-2.9-0.9-5.1-2.6-6.7c-1.7-1.5-4-2.3-6.9-2.3H424V367h-9.9V367.1z"/>
	</g>
	<rect x="50.8" y="288.5" width="398.6" height="7"/>
	<g>
		<path d="M382,148.5c-0.7-2.9-3.3-12.1-3.3-22.2c0-2.8,0.7-7.7,0.7-9.7s-3.4-10.7-3.7-11.5c-0.3-0.8-0.6-2.4,1.8-2.5
			s2.8-0.1,2.8-0.1s-2.7-1.9-3.2-2.1c-0.5-0.1-1.4-0.8-0.7-1.6c0.7-0.8,1.3-1.6,1.7-2.4c0.4-0.7,0.1-2.4-1.9-1.6
			c-2.1,0.8-10.1,3.9-10.7,4.2c-0.6,0.3-1.5,0.6-3.5,0.4s-2.4-0.7-8.3-0.7c-10.5,0-20.6,3.5-25.4,6.7c-6.4,4.3-12.1,8.1-17.6,12.5
			c-2,1.9-4.3,3.9-6.8,5.9c-0.7,0.7-1.4,1.3-2.1,2c-0.3,0.3,0.8-0.2,0,0c-8,6.4-17.7,13.1-17.7,13.1c-24.8,12.9-44.7,1.8-46.8,0.9
			c-4.6-2-16-4.5-24.7-4.5c-10.3,0-21,2.7-32.2,7.6c0,0-5.3-0.5-8.4-0.5c-14.3,0-19.7,1.9-25.4,8.3c-6.2,7-11.3,15.1-11.3,26.2
			c0,14.4-4.7,27.5-14.7,27.5c-1.2,0-2.8-0.7-2.8-0.7s2.9,6.4,12.3,6.4c17.4,0,25-26.8,24-36.4c-2.1-19,13.3-24.6,18.3-24.8
			c0,0-5,10.3-5,23.3s6.6,23.6,6.4,28.5c-0.2,4.9-2.3,8.5-2.3,8.5s-5.7,3.5-6.4,3.9c-0.6,0.5-1.5,1-1.4,3.3c0,0,1.1,25.6,0,31.6
			c-0.6,3.6-1.7,4.6-2.3,5.1c-0.5,0.5-0.9,0.8-0.7,1.5s-0.5,2.9-2.2,2.9s-5.6-1.8-5.6-1.8s-2.4,8,1,16.3c0,0,0.9,0.5,2.8,0.5
			c5.6,0,10.9-3.3,13.4-8.3c0.7-1.5,0.7-3.6,0.2-5.1s-0.4-3.1-0.3-4.5c0.1-1.5,1.7-16.6,1.8-17.5s0.1-2.1,1.1-3
			c4.1-3.7,3.9-3.9,5.4-9.5c0.4-1.6,1.5-4.9,1.5-4.9s18.1-8.3,19.1-8.7c1-0.5,2.3-0.5,2.7-0.1s1.1,1.2,0.3,2.5s-3.5,5.8-3.8,6.8
			c-0.9,3-1.1,3.8,1.3,7.9c5.8,9.7,9.6,23.2,9.9,32.5c0,1.3,0.3,5.1,4.7,4.6c1.5-0.2,3.5-0.4,4.3,0.4c0.7,0.9,0.5,1.6,0.4,2.4
			s0.2,6.4,1.9,8.6c0.8,0.2,11.6,0.8,14.1,0.5c1-0.1,1.3-1.9,0.6-3.1c-5.3-9.2-8.7-14.1-17.1-19.4c-3-1.9-3.3-3.5-3.5-8.4
			c-0.3-6.5-1.6-11.3-2.7-18.2c-0.2-1.2-0.9-2.6,1.1-5.1c3.2-4.1,4.3-10.7,3.8-18.1c-0.1-0.9,0.1-1.6,0.8-2.2
			c1.4-1.1,3.3-2.4,4.4-4.6c0.4-0.8,1.5-1.5,3.3-0.6s19.1,9.3,43.8,9.3c21,0,33.7-5.1,33.7-5.1s-0.8,8.3,0.3,14.2
			c0.3,1.5-0.1,2-0.5,2.7c-7.7,13.3-8.4,17.8-8.4,26.9c0,1.6-0.3,7-1.7,9c-1.4,2-3,5.2-3.3,6.1c-0.3,1-1,3.3,1.4,4.8
			s2.8,1.7,2.8,3.5s-0.1,1.6-0.6,2.3c0,0-2.2,2.9-2.9,4.3c0,0,3.8,2.1,8.9,2.1s7.5-1.5,8.4-1.9c0.8-0.4,1.6-0.9,0.7-2.4
			s-5.8-9.1-6.4-10.3c-1.3-2.6-1.7-3.5-1.7-6.6c0-1.2,0-4.7,0-4.7s-0.1-0.7,0.8-2.4c3-5.2,8-14.9,12.8-20.8c1.6-2,3.8-5.5,3.9-9.5
			c0.1-5.2,3.5-10.9,5.6-12.9c0.8-0.7,2.5-1.8,4.6,0.1c2.1,1.9,18.6,15.6,22.7,20.1c5.3,5.7,7.8,8.4,9.8,14.8c0.5,1.7,1.5,4.7,1.7,6
			c0.3,2.4,0.4,4,1.6,5.6c0.7,0.9,2.7,2.7,0.8,3.6c-1.9,1-3.2,1.6-5,3.7c0,0-0.8,4.8,5.9,12c0.8,0.9,1.7,0.2,2.6-0.9
			c1.8-2.4,6.2-12.9,6.8-17.7c0.1-1,0.4-2.5-1-5.2c-1.5-2.7-8-15.7-8.4-16.7c-0.5-1-1-3-1.2-4.8c-0.2-3-2.4-7.2-4.4-9.4
			c-1.1-1.2-19.8-20.6-20.3-21.2c-1.8-2.2-2.1-3.4-0.9-6.5c2.3-6,3-15.5,3-16.9c0-1.3-0.1-4.1,1.8-6.1c2.8-3,8.6-12.9,10.2-26.1
			c0.1-1,0.3-2.1,1.4-2.2c0.7-0.1,1,0.4,1.5,0.8c2.1,2.1,4.2,4.3,7.5,5.3c1,0.3,3.8,1.1,3.5,3.6s-1.5,8.9,3.2,11.4
			c0,0,1.2-1.9,1.6-2.3c0,0,3,2.4,4.2,2.7c1.2,0.4,2.6,0.4,3.4-1.1s2-5,2.3-5.5C382,152.7,382.7,151.4,382,148.5z"/>
	</g>
</g>
</svg>
