<?xml version="1.0" encoding="utf-8"?>
<!-- Generator: Adobe Illustrator 21.1.0, SVG Export Plug-In . SVG Version: 6.00 Build 0)  -->
<svg version="1.1" id="vector" xmlns="http://www.w3.org/2000/svg" xmlns:xlink="http://www.w3.org/1999/xlink" x="0px" y="0px"
	 viewBox="0 0 612 792" style="enable-background:new 0 0 612 792;" xml:space="preserve">
<style type="text/css">
	.st0{font-family:'Arkhip';}
	.st1{font-size:84.5752px;}
</style>
<g>
	<g>
		<path d="M310.9,415.5C310.9,415.6,310.9,415.6,310.9,415.5C310.9,415.6,310.9,415.5,310.9,415.5z"/>
		<path d="M310.9,415.6L310.9,415.6L310.9,415.6z"/>
		<path d="M310.6,397.1l-20.2-11.3c3.6,9.3,14.6,22.8,18.8,27.8c0.8,1,1.4,1.6,1.7,1.9c1.6-1.8,15.7-18.7,19.9-29.7L310.6,397.1z"/>
		<path d="M428.3,376.4c-2.3,0-4.5,0.4-6.6,1.1c3.4-2.5,7.4-4,11.8-4c2.2,0,4.4,0.4,6.4,1.1c-3.2-4.5-8-7.5-13.4-8.3
			c11.5-23.8,15.7-43.2,13.5-69c0,0-0.4,2.2-17.3,16.4c0,0-4.8,92.9-85.5,75.8l0,0c0,0,0,0,0,0.1c0,0-0.1,0.1-0.1,0.2l-0.1,0.1
			c-0.1,0.1-0.1,0.2-0.2,0.3c0,0.1-0.1,0.1-0.1,0.2c-0.1,0.1-0.2,0.3-0.3,0.4c-1.5,2.1-4.7,6.8-8.5,12c-5.5,7.5-11.9,16-17.1,21.2
			c0.2-0.2,0,0.1-0.1,0.1l0,0c0,0,0,0-0.1-0.1c-5.1-5.1-11.7-13.7-17.1-21.2c-3.9-5.3-7.1-9.9-8.5-12c-0.1-0.1-0.2-0.3-0.3-0.4
			c0-0.1-0.1-0.1-0.1-0.2c-0.1-0.1-0.1-0.2-0.2-0.3l-0.1-0.1c-0.1-0.1-0.1-0.2-0.1-0.2v-0.1l0,0c-80.7,17.1-85.5-75.8-85.5-75.8
			c-3.6-3-6.3-4.6-8.5-6.7c-8.3-7.5-8.8-9.8-8.8-9.8c-2.2,25.8,2.1,45.3,13.5,69c-5.4,0.8-10.2,3.9-13.4,8.3c2-0.7,4.2-1.1,6.4-1.1
			c4.4,0,8.5,1.5,11.8,4c-2.1-0.7-4.3-1.1-6.6-1.1c-6.2,0-11.8,2.7-15.6,7c-1.3,1.5-2.4,3.1-3.2,4.9c0.9-0.5,1.8-1,2.7-1.5
			c4-1.9,8.5-3,13.3-3c5.3,0,10.2,1.3,14.5,3.6c-5.8,4-9.6,11.1-9.6,19.2c0,0.7,0,1.4,0.1,2.1c3.2-4.2,7.8-7,13-7.8
			c0.9-0.2,1.9-0.2,2.9-0.2c0.8,0,1.7,0.1,2.5,0.2c0.2,0,0.5,0.1,0.7,0.1c0.2,0.3,0.3,0.5,0.5,0.8c1.3,2.1,2.8,4.3,4.3,6.3
			c3.6,4.8,7.7,9.5,12.1,14c0.2,0.2,0.5,0.5,0.7,0.7c31.4,31.6,79,54.3,79,54.3s47.4-22.6,78.8-54.2c0.2-0.2,0.5-0.5,0.7-0.7
			c4.4-4.5,8.5-9.2,12.1-14c1.5-2.1,3-4.2,4.3-6.3c0.2-0.3,0.3-0.5,0.5-0.8c0.2,0,0.5-0.1,0.7-0.1c0.8-0.1,1.6-0.2,2.5-0.2
			c1,0,1.9,0.1,2.9,0.2c5.2,0.8,9.8,3.6,13,7.8c0.1-0.7,0.1-1.4,0.1-2.1c0-8.1-3.8-15.2-9.6-19.2c4.3-2.3,9.2-3.6,14.5-3.6
			c4.8,0,9.3,1.1,13.3,3c0.9,0.4,1.9,0.9,2.7,1.5c-0.8-1.8-1.9-3.4-3.2-4.9C440.1,379.2,434.5,376.4,428.3,376.4z"/>
		<path d="M343.7,378.7c26.2,5.6,65.4,4.5,63.4-59.6l-10.8,6.4c1.6,49.8-29.2,50.6-49.1,45.9c-0.4-0.1-0.8-0.2-1.2-0.3
			c-8.8-2.2-15.2-5.3-15.2-5.3l-0.7-0.3l-7.3,5.8c0,0,4,2.7,13.2,5.4C338.3,377.4,340.9,378.1,343.7,378.7z"/>
		<path d="M349.9,295.3c0,0-16.2-12.5-39.3-12.4v-0.1c-23.1-0.1-39.3,12.4-39.3,12.4c27.5,12.5,37.5,27.7,39.3,30.7v0.1
			C312.3,323.2,322.3,307.9,349.9,295.3z"/>
		<path d="M390,329.3l-5.5,3.4l0,0l-3.5,2.1l0,0c-1.5,30.1-25.1,25.7-35.9,22.1l-7.6,4.7C350.3,366.5,389.6,377.7,390,329.3z"/>
		<path d="M221,319.3c66.4,32.4,88.7,58.7,89.6,59.8v0.1c0,0,21.8-26.7,89.6-59.8c27.1-13.2,52-29.9,68.2-99.3c0,0-24.6,45.7-85,68
			c-58.7,21.7-72.1,46.6-72.8,48c-0.1-0.1-12.6-25.8-72.9-48.1c-60.4-22.4-85-68-85-68C169,289.4,193.9,306.1,221,319.3z"/>
		<path d="M277.5,378.6c2.7-0.6,5.3-1.3,7.8-2c9.2-2.7,13.2-5.4,13.2-5.4l-7.3-5.8l-0.7,0.3c0,0-6.4,3.1-15.2,5.3
			c-0.4,0.1-0.8,0.2-1.2,0.3c-19.9,4.6-50.6,4.2-49.1-45.5c0,0-0.8-0.6-3.2-2c-2.5-1.5-7.6-3.9-7.6-3.9
			C212.2,383.9,251.4,384.2,277.5,378.6z"/>
		<path d="M232.4,278.9c12.7,4.7,31.6,13,31.6,13c16.8-11.8,32.7-16,46.6-16.1v0.1c13.9,0.2,29.8,4.3,46.6,16.1
			c0,0,18.9-8.3,31.6-13c13-4.8,26.2-12.7,30.7-17.2c2.9-2.9-44.9-39.5-108.8-39.6v-0.1c-63.9,0.1-111.8,36.6-108.9,39.6
			C206.2,266.1,219.4,274.1,232.4,278.9z"/>
		<path d="M236.9,332.3c1.8,1.1,3.2,2.4,3.2,2.4l0,0c1.5,30.1,26,25.5,36.8,21.8c0,0,2.2,1,3.5,2.1c1.9,1.6,3.2,2.9,3.2,2.9
			c-12.7,4.9-52,16.1-52.4-32.3C231.2,329.2,235.5,331.5,236.9,332.3z"/>
	</g>
	<text transform="matrix(1.1111 0 0 1 16.8496 551.002)" class="st0 st1">Nocturnal</text>
</g>
</svg>
