<?xml version="1.0" encoding="utf-8"?>
<!-- Generator: Adobe Illustrator 21.1.0, SVG Export Plug-In . SVG Version: 6.00 Build 0)  -->
<svg version="1.1" xmlns="http://www.w3.org/2000/svg" xmlns:xlink="http://www.w3.org/1999/xlink" x="0px" y="0px"
	 viewBox="0 0 792 612" style="enable-background:new 0 0 792 612;" xml:space="preserve">
<style type="text/css">
	.st0{display:none;}
	.st1{display:inline;fill:#034C75;}
	.st2{fill:none;stroke:#CC2656;stroke-miterlimit:10;}
	.st3{fill:#231F20;stroke:#CC2656;stroke-miterlimit:10;}
	.st4{fill:#231F20;}
	.st5{font-family:'Arkhip';}
	.st6{font-size:120.4563px;}
	.st7{font-size:37.7662px;}
	.st8{letter-spacing:1;}
</style>
<g id="Layer_2" class="st0">
	<rect class="st1" width="791" height="612"/>
</g>
<g id="Layer_1">
	<path class="st2" d="M438.4,600.5"/>
	<path class="st3" d="M428.1,468.9"/>
	<path class="st2" d="M361.4,607"/>
	<path class="st3" d="M372.4,468.9"/>
	<g>
		<text transform="matrix(1 0 0 1 143.586 430.0684)" class="st4 st5 st6">sailors</text>
		<rect x="150" y="446.6" class="st4" width="492" height="10.6"/>
		<text transform="matrix(1 0 0 0.9 211.4387 488.2875)" class="st4 st5 st7 st8">fishing company</text>
		<path class="st4" d="M410.6,115.9c2,2.8,3.9,5.3,5.4,6.9c5.4,5.8,27.1,23,27.1,23h-93.8c0,0,25-17.3,31.4-23
			c1.9-1.7,4.4-4.5,7-7.6c-58.1,4.2-103.8,52.7-103.8,111.8c0,61.9,50.2,112.1,112.1,112.1c7.7,0,15.2-0.8,22.5-2.3
			c-22-24.5-25.8-25.9-63.6-41.4v-34.8l85.1,29.7l0,39.8c40-17.1,68-56.8,68-103.1C508.1,170.1,465.6,123,410.6,115.9z M359.1,159.2
			h76.6V205h-76.6V159.2z M440,260.6L354.9,237v-18.6l85.1,0.9V260.6z"/>
	</g>
</g>
</svg>
