<?xml version="1.0" encoding="utf-8"?>
<!-- Generator: Adobe Illustrator 21.1.0, SVG Export Plug-In . SVG Version: 6.00 Build 0)  -->
<svg version="1.1" id="Layer_1" xmlns="http://www.w3.org/2000/svg" xmlns:xlink="http://www.w3.org/1999/xlink" x="0px" y="0px"
	 viewBox="0 0 720 360" style="enable-background:new 0 0 720 360;" xml:space="preserve">
<style type="text/css">
	.st0{fill:#FFFFFF;}
</style>
<path class="st0" d="M627,118.9c-4.1,1.8-8.5,3-13,3.6c4.7-2.8,8.3-7.3,9.9-12.5c-4.4,2.6-9.3,4.5-14.4,5.5
	c-8.6-9.1-23-9.5-32.1-0.9c-5.9,5.5-8.4,13.8-6.5,21.6c-18.2-0.9-35.2-9.5-46.7-23.7c-6,10.4-2.9,23.6,7,30.3
	c-3.6-0.1-7.1-1.1-10.3-2.8c0,0.1,0,0.2,0,0.3c0,10.8,7.6,20.1,18.2,22.2c-3.3,0.9-6.8,1-10.2,0.4c3,9.2,11.5,15.6,21.2,15.7
	c-8,6.3-17.9,9.7-28.1,9.7c-1.8,0-3.6-0.1-5.4-0.3c10.4,6.7,22.4,10.2,34.7,10.2c41.7,0,64.5-34.5,64.5-64.5c0-1,0-2-0.1-2.9
	C620.2,127.4,624,123.5,627,118.9z"/>
<g>
	<path class="st0" d="M177.4,198h-36.6c-14.1,0-25.4-11.4-25.5-25.5v-39c0-14.1,11.4-25.4,25.5-25.5h36.6
		c14.1,0,25.4,11.4,25.5,25.5v39C202.9,186.6,191.5,198,177.4,198z M177.4,191.3c10.3,0,18.7-8.4,18.8-18.8v-39
		c0-10.3-8.4-18.7-18.8-18.8h-36.6c-10.3,0-18.7,8.4-18.8,18.8v39c0,10.3,8.4,18.7,18.8,18.8L177.4,191.3z"/>
	<path class="st0" d="M183.4,152.7c0,13.3-10.8,24.1-24.1,24.1c-13.3,0-24.1-10.8-24.1-24.1c0-13.3,10.8-24.1,24.1-24.1
		C172.6,128.5,183.4,139.3,183.4,152.7C183.4,152.7,183.4,152.7,183.4,152.7z M159.2,136.9c-8.7,0-15.8,7.1-15.8,15.8
		s7.1,15.8,15.8,15.8s15.8-7.1,15.8-15.8C174.9,143.9,167.9,136.9,159.2,136.9L159.2,136.9z"/>
	<circle class="st0" cx="183.8" cy="128.2" r="5.7"/>
</g>
<path class="st0" d="M367,198h-18.7v-45.2h-9.4v-15.6h9.4v-9.4c0-12.7,5.3-20.3,20.3-20.3H381v15.6h-7.8c-5.8,0-6.2,2.2-6.2,6.3
	l0,7.8h14.1l-1.7,15.6H367V198z"/>
</svg>
